FrancaisAudiardGilles Grangier-Gabin Audiard-Les Vieux De La Vieille-1960.avi
Format                                   : AVI
Format/Info                              : Audio Video Interleave
File size                                : 646 MiB
Duration                                 : 1h 25mn
Overall bit rate                         : 1 052 Kbps
Writing application                      : Nandub v1.0rc2
Writing library                          : Nandub build 1853/release

Video
ID                                       : 0
Format                                   : MPEG-4 Visual
Codec ID                                 : DIV3
Codec ID/Hint                            : DivX 3 Low
Duration                                 : 1h 25mn
Bit rate                                 : 912 Kbps
Width                                    : 640 pixels
Height                                   : 384 pixels
Display aspect ratio                     : 1.667
Frame rate                               : 25.000 fps
Color space                              : YUV
Chroma subsampling                       : 4:2:0
Bit depth                                : 8 bits
Compression mode                         : Lossy
Bits/(Pixel*Frame)                       : 0.148
Stream size                              : 560 MiB (87%)

Audio
ID                                       : 1
Format                                   : MPEG Audio
Format version                           : Version 1
Format profile                           : Layer 3
Mode                                     : Joint stereo
Mode extension                           : MS Stereo
Codec ID                                 : 55
Codec ID/Hint                            : MP3
Duration                                 : 1h 25mn
Bit rate mode                            : Constant
Bit rate                                 : 128 Kbps
Channel(s)                               : 2 channels
Sampling rate                            : 44.1 KHz
Compression mode                         : Lossy
Stream size                              : 78.6 MiB (12%)
Alignment                                : Aligned on interleaves
Interleave, duration                     : 26 ms (0.65 video frame)
Interleave, preload duration             : 496 ms
Writing library                          : LAME3.88 (beta)
